# xmcd
#
# Track frame offsets:
#	150
#	14695
#	29277
#	42780
#	56405
#	70790
#	83715
#	98117
#	112042
#	126695
#	141665
#	153617
#	168555
#	183542
#	195602
#	207487
#	220715
#	233805
#	248687
#	263555
#	277775
#	291840
#	304847
#	316872
#	329825
#
# Disc length: 4600 seconds
#
# Revision: 1
# Processed by: cddbd v1.5.1PL0 Copyright (c) Steve Scherf et al.
# Submitted via: audiograbber 1.83.01
#
DISCID=7b11f619
DTITLE=Dixieland Jug Blowers - Louisville Stomp
DYEAR=1900
DGENRE=
TTITLE0=Boodle- Am Shake 1
TTITLE1=Boodle- Am Shake 2
TTITLE2=Florida Blues
TTITLE3=Don't Give All the Lard Away
TTITLE4=Banjoreno
TTITLE5=Skip, Scat, Doodle-Do
TTITLE6=Louisville Stomp
TTITLE7=House Rent Rag
TTITLE8=Memphis Shake
TTITLE9=Carpet Alley - Breakdown - 1
TTITLE10=Carpet Alley - Breakdown - 2
TTITLE11=Hen Party Blues - 1
TTITLE12=Hen Party Blues - 2
TTITLE13=National Blues - 2
TTITLE14=National Blues - 3
TTITLE15=Southern Shout - 2
TTITLE16=Southern Shout - 3
TTITLE17=Garden of Joy Blues
TTITLE18=You'd Better Leave Me Alone, Sweet Papa
TTITLE19=Only Mother Cares for Me
TTITLE20=Love Blues
TTITLE21=I Never Did Want You
TTITLE22=If You Can't Make it Easy, Get a Job and Go to Work - 1
TTITLE23=If You Can't Make It Easy, Get a Job and Go to Work - 2
TTITLE24=When I Stopped Running I Was at Home
EXTD=
EXTT0=
EXTT1=
EXTT2=
EXTT3=
EXTT4=
EXTT5=
EXTT6=
EXTT7=
EXTT8=
EXTT9=
EXTT10=
EXTT11=
EXTT12=
EXTT13=
EXTT14=
EXTT15=
EXTT16=
EXTT17=
EXTT18=
EXTT19=
EXTT20=
EXTT21=
EXTT22=
EXTT23=
EXTT24=
PLAYORDER=
